<svg width="50" height="54" viewBox="0 0 50 54" fill="none" xmlns="http://www.w3.org/2000/svg">
<path d="M24.6875 5.0625C13.6423 5.0625 4.6875 14.0173 4.6875 25.0625C4.6875 36.1077 13.6423 45.0625 24.6875 45.0625C35.7327 45.0625 44.6875 36.1077 44.6875 25.0625C44.6875 14.0173 35.7327 5.0625 24.6875 5.0625Z" stroke="#656565" stroke-width="3" stroke-miterlimit="10"/>
<path d="M25 5.0625C19.3291 5.0625 13.9971 13.9904 13.9971 25.0025C13.9971 36.0146 19.3291 44.9425 25 44.9425C30.6709 44.9425 36.0029 36.0146 36.0029 25.0025C36.0029 13.9904 30.6709 5.0625 25 5.0625Z" stroke="#656565" stroke-width="3" stroke-miterlimit="10"/>
<path d="M11.458 12.3745C15.1924 14.8463 19.8936 16.3203 25 16.3203C30.1064 16.3203 34.8076 14.8463 38.542 12.3745M38.542 37.6245C34.8076 35.1527 30.1064 33.6787 25 33.6787C19.8936 33.6787 15.1924 35.1527 11.458 37.6245" stroke="#656565" stroke-width="3" stroke-linecap="round" stroke-linejoin="round"/>
<path d="M25 5.0625V44.7825M45.3125 24.9225H4.6875" stroke="#656565" stroke-width="3" stroke-miterlimit="10"/>
</svg>
